<svg xmlns="http://www.w3.org/2000/svg" version="1.1" xmlns:xlink="http://www.w3.org/1999/xlink" xmlns:svgjs="http://svgjs.dev/svgjs" viewBox="0 0 6.3407795858352305 1.6656331014602306"><g transform="matrix(1,0,0,1,1.8070240316924115,0.2853311991676152)"><rect width="6.3407795858352305" height="6.3407795858352305" x="-1.8070240316924115" y="-2.6229044413551152" fill="#382d5e"></rect><g><path d=" M 0.380859375 0.10913085937500022 Q 0.29443359375 0.10913085937500022 0.224853515625 0.11682128906250022 Q 0.1552734375 0.12451171875000022 0.104736328125 0.13330078125000022 Q 0.046142578125 0.14428710937500022 0 0.15747070312500022 L 0.021240234375 0.03881835937500022 Q 0.030029296875 0.03955078125000022 0.047607421875 0.04028320312500022 Q 0.065185546875 0.04101562500000022 0.0867919921875 0.04174804687500022 Q 0.1083984375 0.04248046875000022 0.1322021484375 0.04284667968750022 Q 0.156005859375 0.04321289062500022 0.17724609375 0.04357910156250022 Q 0.198486328125 0.04394531250000022 0.2149658203125 0.04431152343750022 Q 0.2314453125 0.04467773437500022 0.23876953125 0.04467773437500022 L 0.656982421875 0.04467773437500022 Q 0.664306640625 0.04467773437500022 0.6807861328125 0.04431152343750022 Q 0.697265625 0.04394531250000022 0.718505859375 0.04357910156250022 Q 0.73974609375 0.04321289062500022 0.7635498046875 0.04284667968750022 Q 0.787353515625 0.04248046875000022 0.8089599609375 0.04174804687500022 Q 0.83056640625 0.04101562500000022 0.84814453125 0.04028320312500022 Q 0.86572265625 0.03955078125000022 0.87451171875 0.03881835937500022 L 0.895751953125 0.15747070312500022 Q 0.848876953125 0.14428710937500022 0.790283203125 0.13330078125000022 Q 0.73974609375 0.12451171875000022 0.670166015625 0.11682128906250022 Q 0.6005859375 0.10913085937500022 0.51416015625 0.10913085937500022 L 0.51416015625 0.8085937500000002 Q 0.51416015625 0.8708496093750002 0.5159912109375 0.9173583984375002 Q 0.517822265625 0.9638671875000002 0.5203857421875 0.9975585937500002 Q 0.52294921875 1.0312500000000002 0.5269775390625 1.0539550781250002 Q 0.531005859375 1.0766601562500002 0.535400390625 1.0920410156250002 L 0.535400390625 1.0949707031250002 L 0.3603515625 1.0949707031250002 L 0.3603515625 1.0920410156250002 Q 0.36474609375 1.0766601562500002 0.368408203125 1.0539550781250002 Q 0.3720703125 1.0312500000000002 0.375 0.9975585937500002 Q 0.3779296875 0.9638671875000002 0.37939453125 0.9173583984375002 Q 0.380859375 0.8708496093750002 0.380859375 0.8085937500000002 L 0.380859375 0.10913085937500022 M 0.903076171875 0.6313476562500002 Q 0.903076171875 0.5690917968750002 0.9012451171875 0.5225830078125002 Q 0.8994140625 0.4760742187500002 0.8968505859375 0.4423828125000002 Q 0.894287109375 0.4086914062500002 0.8902587890625 0.3859863281250002 Q 0.88623046875 0.3632812500000002 0.8818359375 0.3479003906250002 L 0.8818359375 0.3449707031250002 L 1.051025390625 0.3449707031250002 L 1.051025390625 0.3479003906250002 Q 1.045166015625 0.3647460937500002 1.0411376953125 0.3889160156250002 Q 1.037109375 0.4130859375000002 1.034912109375 0.4511718750000002 Q 1.06201171875 0.4284667968750002 1.09130859375 0.4064941406250002 Q 1.12060546875 0.3845214843750002 1.1513671875 0.3676757812500002 Q 1.18212890625 0.3508300781250002 1.2139892578125 0.3405761718750002 Q 1.245849609375 0.3303222656250002 1.278076171875 0.3303222656250002 Q 1.2978515625 0.3303222656250002 1.3125 0.3321533203125002 Q 1.3271484375 0.3339843750000002 1.3388671875 0.3372802734375002 Q 1.3505859375 0.3405761718750002 1.360107421875 0.3446044921875002 Q 1.36962890625 0.3486328125000002 1.37841796875 0.3522949218750002 L 1.342529296875 0.4921875000000002 L 1.330078125 0.4892578125000002 Q 1.3212890625 0.4570312500000002 1.297119140625 0.4376220703125002 Q 1.27294921875 0.4182128906250002 1.231201171875 0.4182128906250002 Q 1.20849609375 0.4182128906250002 1.18359375 0.4262695312500002 Q 1.15869140625 0.4343261718750002 1.133056640625 0.4486083984375002 Q 1.107421875 0.4628906250000002 1.081787109375 0.4815673828125002 Q 1.05615234375 0.5002441406250002 1.031982421875 0.5207519531250002 Q 1.030517578125 0.5419921875000002 1.030517578125 0.5668945312500002 Q 1.030517578125 0.5917968750000002 1.030517578125 0.6196289062500002 L 1.030517578125 0.8085937500000002 Q 1.030517578125 0.8708496093750002 1.031982421875 0.9173583984375002 Q 1.033447265625 0.9638671875000002 1.036376953125 0.9975585937500002 Q 1.039306640625 1.0312500000000002 1.04296875 1.0539550781250002 Q 1.046630859375 1.0766601562500002 1.051025390625 1.0920410156250002 L 1.051025390625 1.0949707031250002 L 0.8818359375 1.0949707031250002 L 0.8818359375 1.0920410156250002 Q 0.88623046875 1.0766601562500002 0.8902587890625 1.0539550781250002 Q 0.894287109375 1.0312500000000002 0.8968505859375 0.9975585937500002 Q 0.8994140625 0.9638671875000002 0.9012451171875 0.9173583984375002 Q 0.903076171875 0.8708496093750002 0.903076171875 0.8085937500000002 L 0.903076171875 0.6313476562500002 M 1.40185546875 0.8789062500000002 Q 1.40185546875 0.8210449218750002 1.4256591796875 0.7785644531250002 Q 1.449462890625 0.7360839843750002 1.489013671875 0.7060546875000002 Q 1.528564453125 0.6760253906250002 1.5791015625 0.6573486328125002 Q 1.629638671875 0.6386718750000002 1.683837890625 0.6280517578125002 Q 1.738037109375 0.6174316406250002 1.790771484375 0.6134033203125002 Q 1.843505859375 0.6093750000000002 1.887451171875 0.6086425781250002 L 1.887451171875 0.5712890625000002 Q 1.887451171875 0.5229492187500002 1.875 0.4877929687500002 Q 1.862548828125 0.4526367187500002 1.83984375 0.4295654296875002 Q 1.817138671875 0.4064941406250002 1.7852783203125 0.3951416015625002 Q 1.75341796875 0.3837890625000002 1.71533203125 0.3837890625000002 Q 1.68896484375 0.3837890625000002 1.663330078125 0.3881835937500002 Q 1.6376953125 0.3925781250000002 1.6102294921875 0.4028320312500002 Q 1.582763671875 0.4130859375000002 1.5523681640625 0.4306640625000002 Q 1.52197265625 0.4482421875000002 1.48681640625 0.4753417968750002 L 1.4794921875 0.4709472656250002 L 1.529296875 0.3676757812500002 Q 1.553466796875 0.3566894531250002 1.576904296875 0.3497314453125002 Q 1.600341796875 0.3427734375000002 1.62451171875 0.3383789062500002 Q 1.648681640625 0.3339843750000002 1.6739501953125 0.3321533203125002 Q 1.69921875 0.3303222656250002 1.72705078125 0.3303222656250002 Q 1.803955078125 0.3303222656250002 1.8585205078125 0.3489990234375002 Q 1.9130859375 0.3676757812500002 1.9478759765625 0.4002685546875002 Q 1.982666015625 0.4328613281250002 1.998779296875 0.4764404296875002 Q 2.014892578125 0.5200195312500002 2.014892578125 0.5698242187500002 L 2.014892578125 0.8085937500000002 Q 2.014892578125 0.8708496093750002 2.0167236328125 0.9173583984375002 Q 2.0185546875 0.9638671875000002 2.0211181640625 0.9975585937500002 Q 2.023681640625 1.0312500000000002 2.0277099609375 1.0539550781250002 Q 2.03173828125 1.0766601562500002 2.0361328125 1.0920410156250002 L 2.0361328125 1.0949707031250002 L 1.874267578125 1.0949707031250002 L 1.874267578125 1.0920410156250002 Q 1.8779296875 1.0803222656250002 1.8797607421875 1.0656738281250002 Q 1.881591796875 1.0510253906250002 1.883056640625 1.0305175781250002 Q 1.86767578125 1.0437011718750002 1.8468017578125 1.0576171875000002 Q 1.825927734375 1.0715332031250002 1.7991943359375 1.0828857421875002 Q 1.7724609375 1.0942382812500002 1.7398681640625 1.1011962890625002 Q 1.707275390625 1.1081542968750002 1.66845703125 1.1081542968750002 Q 1.541015625 1.1081542968750002 1.471435546875 1.0484619140625002 Q 1.40185546875 0.9887695312500002 1.40185546875 0.8789062500000002 M 1.887451171875 0.6657714843750002 Q 1.82080078125 0.6665039062500002 1.75927734375 0.6734619140625002 Q 1.69775390625 0.6804199218750002 1.6505126953125 0.7023925781250002 Q 1.603271484375 0.7243652343750002 1.5750732421875 0.7650146484375002 Q 1.546875 0.8056640625000002 1.546875 0.8730468750000002 Q 1.546875 0.9594726562500002 1.590087890625 1.0048828125000002 Q 1.63330078125 1.0502929687500002 1.70947265625 1.0502929687500002 Q 1.74462890625 1.0502929687500002 1.7735595703125 1.0404052734375002 Q 1.802490234375 1.0305175781250002 1.8248291015625 1.0155029296875002 Q 1.84716796875 1.0004882812500002 1.862548828125 0.9825439453125002 Q 1.8779296875 0.9645996093750002 1.885986328125 0.9477539062500002 Q 1.887451171875 0.9199218750000002 1.887451171875 0.8858642578125002 Q 1.887451171875 0.8518066406250002 1.887451171875 0.8085937500000002 L 1.887451171875 0.6657714843750002 M 2.2353515625 0.2863769531250002 Q 2.2353515625 0.22412109375000022 2.2335205078125 0.17761230468750022 Q 2.231689453125 0.13110351562500022 2.2291259765625 0.09741210937500022 Q 2.2265625 0.06372070312500022 2.2225341796875 0.04101562500000022 Q 2.218505859375 0.018310546875000222 2.214111328125 0.002929687500000222 L 2.214111328125 2.220446049250313e-16 L 2.38330078125 2.220446049250313e-16 L 2.38330078125 0.002929687500000222 Q 2.37890625 0.018310546875000222 2.375244140625 0.04101562500000022 Q 2.37158203125 0.06372070312500022 2.36865234375 0.09741210937500022 Q 2.36572265625 0.13110351562500022 2.3642578125 0.17761230468750022 Q 2.36279296875 0.22412109375000022 2.36279296875 0.2863769531250002 L 2.36279296875 0.6511230468750002 L 2.602294921875 0.4365234375000002 Q 2.665283203125 0.3815917968750002 2.665283203125 0.3449707031250002 L 2.835205078125 0.3449707031250002 L 2.835205078125 0.3479003906250002 Q 2.816162109375 0.3537597656250002 2.7989501953125 0.3629150390625002 Q 2.78173828125 0.3720703125000002 2.7645263671875 0.3845214843750002 Q 2.747314453125 0.3969726562500002 2.7286376953125 0.4127197265625002 Q 2.7099609375 0.4284667968750002 2.68798828125 0.4482421875000002 L 2.473388671875 0.6437988281250002 L 2.767822265625 0.9916992187500002 Q 2.781005859375 1.0078125000000002 2.79638671875 1.0242919921875002 Q 2.811767578125 1.0407714843750002 2.8271484375 1.0546875000000002 Q 2.842529296875 1.0686035156250002 2.857177734375 1.0788574218750002 Q 2.871826171875 1.0891113281250002 2.88427734375 1.0920410156250002 L 2.88427734375 1.0949707031250002 L 2.671875 1.0949707031250002 Q 2.671875 1.0759277343750002 2.6619873046875 1.0554199218750002 Q 2.652099609375 1.0349121093750002 2.62646484375 1.0034179687500002 L 2.36279296875 0.6899414062500002 L 2.36279296875 0.8085937500000002 Q 2.36279296875 0.8708496093750002 2.3642578125 0.9173583984375002 Q 2.36572265625 0.9638671875000002 2.36865234375 0.9975585937500002 Q 2.37158203125 1.0312500000000002 2.375244140625 1.0539550781250002 Q 2.37890625 1.0766601562500002 2.38330078125 1.0920410156250002 L 2.38330078125 1.0949707031250002 L 2.214111328125 1.0949707031250002 L 2.214111328125 1.0920410156250002 Q 2.218505859375 1.0766601562500002 2.2225341796875 1.0539550781250002 Q 2.2265625 1.0312500000000002 2.2291259765625 0.9975585937500002 Q 2.231689453125 0.9638671875000002 2.2335205078125 0.9173583984375002 Q 2.2353515625 0.8708496093750002 2.2353515625 0.8085937500000002 L 2.2353515625 0.2863769531250002 M 3.07177734375 0.8386230468750002 Q 3.07177734375 0.9353027343750002 3.1102294921875 0.9807128906250002 Q 3.148681640625 1.0261230468750002 3.2138671875 1.0261230468750002 Q 3.2373046875 1.0261230468750002 3.2666015625 1.0162353515625002 Q 3.2958984375 1.0063476562500002 3.3270263671875 0.9898681640625002 Q 3.358154296875 0.9733886718750002 3.3892822265625 0.9514160156250002 Q 3.42041015625 0.9294433593750002 3.44677734375 0.9045410156250002 Q 3.4482421875 0.8833007812500002 3.4482421875 0.8594970703125002 Q 3.4482421875 0.8356933593750002 3.4482421875 0.8085937500000002 L 3.4482421875 0.6313476562500002 Q 3.4482421875 0.5690917968750002 3.4464111328125 0.5225830078125002 Q 3.444580078125 0.4760742187500002 3.4420166015625 0.4423828125000002 Q 3.439453125 0.4086914062500002 3.4354248046875 0.3859863281250002 Q 3.431396484375 0.3632812500000002 3.427001953125 0.3479003906250002 L 3.427001953125 0.3449707031250002 L 3.59619140625 0.3449707031250002 L 3.59619140625 0.3479003906250002 Q 3.591796875 0.3632812500000002 3.588134765625 0.3859863281250002 Q 3.58447265625 0.4086914062500002 3.58154296875 0.4423828125000002 Q 3.57861328125 0.4760742187500002 3.5771484375 0.5225830078125002 Q 3.57568359375 0.5690917968750002 3.57568359375 0.6313476562500002 L 3.57568359375 0.8085937500000002 Q 3.57568359375 0.8708496093750002 3.5771484375 0.9173583984375002 Q 3.57861328125 0.9638671875000002 3.58154296875 0.9975585937500002 Q 3.58447265625 1.0312500000000002 3.588134765625 1.0539550781250002 Q 3.591796875 1.0766601562500002 3.59619140625 1.0920410156250002 L 3.59619140625 1.0949707031250002 L 3.427001953125 1.0949707031250002 L 3.427001953125 1.0920410156250002 Q 3.431396484375 1.0737304687500002 3.4361572265625 1.0451660156250002 Q 3.44091796875 1.0166015625000002 3.443115234375 0.9704589843750002 Q 3.4130859375 0.9960937500000002 3.3782958984375 1.0209960937500002 Q 3.343505859375 1.0458984375000002 3.3057861328125 1.0656738281250002 Q 3.26806640625 1.0854492187500002 3.2296142578125 1.0975341796875002 Q 3.191162109375 1.1096191406250002 3.15380859375 1.1096191406250002 Q 3.0966796875 1.1096191406250002 3.0567626953125 1.0898437500000002 Q 3.016845703125 1.0700683593750002 2.9915771484375 1.0378417968750002 Q 2.96630859375 1.0056152343750002 2.9549560546875 0.9645996093750002 Q 2.943603515625 0.9235839843750002 2.943603515625 0.8803710937500002 L 2.943603515625 0.6313476562500002 Q 2.943603515625 0.5690917968750002 2.942138671875 0.5225830078125002 Q 2.940673828125 0.4760742187500002 2.937744140625 0.4423828125000002 Q 2.934814453125 0.4086914062500002 2.93115234375 0.3859863281250002 Q 2.927490234375 0.3632812500000002 2.923095703125 0.3479003906250002 L 2.923095703125 0.3449707031250002 L 3.09228515625 0.3449707031250002 L 3.09228515625 0.3479003906250002 Q 3.087890625 0.3632812500000002 3.084228515625 0.3859863281250002 Q 3.08056640625 0.4086914062500002 3.07763671875 0.4423828125000002 Q 3.07470703125 0.4760742187500002 3.0732421875 0.5225830078125002 Q 3.07177734375 0.5690917968750002 3.07177734375 0.6313476562500002 L 3.07177734375 0.8386230468750002 M 3.7998046875 0.6313476562500002 Q 3.7998046875 0.5690917968750002 3.7979736328125 0.5225830078125002 Q 3.796142578125 0.4760742187500002 3.7935791015625 0.4423828125000002 Q 3.791015625 0.4086914062500002 3.7869873046875 0.3859863281250002 Q 3.782958984375 0.3632812500000002 3.778564453125 0.3479003906250002 L 3.778564453125 0.3449707031250002 L 3.94775390625 0.3449707031250002 L 3.94775390625 0.3479003906250002 Q 3.94189453125 0.3647460937500002 3.9378662109375 0.3889160156250002 Q 3.933837890625 0.4130859375000002 3.931640625 0.4511718750000002 Q 3.958740234375 0.4284667968750002 3.988037109375 0.4064941406250002 Q 4.017333984375 0.3845214843750002 4.048095703125 0.3676757812500002 Q 4.078857421875 0.3508300781250002 4.1107177734375 0.3405761718750002 Q 4.142578125 0.3303222656250002 4.1748046875 0.3303222656250002 Q 4.194580078125 0.3303222656250002 4.209228515625 0.3321533203125002 Q 4.223876953125 0.3339843750000002 4.235595703125 0.3372802734375002 Q 4.247314453125 0.3405761718750002 4.2568359375 0.3446044921875002 Q 4.266357421875 0.3486328125000002 4.275146484375 0.3522949218750002 L 4.2392578125 0.4921875000000002 L 4.226806640625 0.4892578125000002 Q 4.218017578125 0.4570312500000002 4.19384765625 0.4376220703125002 Q 4.169677734375 0.4182128906250002 4.1279296875 0.4182128906250002 Q 4.105224609375 0.4182128906250002 4.080322265625 0.4262695312500002 Q 4.055419921875 0.4343261718750002 4.02978515625 0.4486083984375002 Q 4.004150390625 0.4628906250000002 3.978515625 0.4815673828125002 Q 3.952880859375 0.5002441406250002 3.9287109375 0.5207519531250002 Q 3.92724609375 0.5419921875000002 3.92724609375 0.5668945312500002 Q 3.92724609375 0.5917968750000002 3.92724609375 0.6196289062500002 L 3.92724609375 0.8085937500000002 Q 3.92724609375 0.8708496093750002 3.9287109375 0.9173583984375002 Q 3.93017578125 0.9638671875000002 3.93310546875 0.9975585937500002 Q 3.93603515625 1.0312500000000002 3.939697265625 1.0539550781250002 Q 3.943359375 1.0766601562500002 3.94775390625 1.0920410156250002 L 3.94775390625 1.0949707031250002 L 3.778564453125 1.0949707031250002 L 3.778564453125 1.0920410156250002 Q 3.782958984375 1.0766601562500002 3.7869873046875 1.0539550781250002 Q 3.791015625 1.0312500000000002 3.7935791015625 0.9975585937500002 Q 3.796142578125 0.9638671875000002 3.7979736328125 0.9173583984375002 Q 3.7998046875 0.8708496093750002 3.7998046875 0.8085937500000002 L 3.7998046875 0.6313476562500002" fill="#ffffff" fill-rule="nonzero"></path></g><g></g><g clip-path="url(#SvgjsClipPath1051)"><g clip-path="url(#SvgjsClipPath10482733ddaa-c65d-4247-b8d6-24b6d72dd8d5)"><path d=" M -0.5914148541638597 0.1646927247640639 L -0.5914148541638597 -0.026722129399796235 L -0.7828049873081975 -0.026722129399796235 L -0.7828049873081975 0.35608285790840133 L -0.9741951204525349 0.35608285790840133 L -0.9741951204525349 0.1646927247640639 L -1.165609974616395 0.1646927247640639 L -1.165609974616395 -0.026722129399796235 L -1.3570001077607325 -0.026722129399796235 L -1.3570001077607325 0.1646927247640639 L -1.5484149619245926 0.1646927247640639 L -1.5484149619245926 0.35608285790840133 L -1.165609974616395 0.35608285790840133 L -1.165609974616395 0.5474977120722615 L -1.3570001077607325 0.5474977120722615 L -1.3570001077607325 0.7388878452165989 L -1.5484149619245926 0.7388878452165989 L -1.5484149619245926 0.9303026993804592 L -1.3570001077607325 0.9303026993804592 L -1.3570001077607325 1.1216928325247966 L -1.165609974616395 1.1216928325247966 L -1.165609974616395 0.7388878452165989 L -0.9741951204525349 0.7388878452165989 L -0.9741951204525349 0.9303026993804592 L -0.7828049873081975 0.9303026993804592 L -0.7828049873081975 1.1216928325247966 L -0.5913901331443372 1.1216928325247966 L -0.5913901331443372 0.9303026993804592 L -0.3999999999999999 0.9303026993804592 L -0.3999999999999999 0.7388878452165989 L -0.7828049873081975 0.7388878452165989 L -0.7828049873081975 0.5474977120722615 L -0.5914148541638597 0.5474977120722615 L -0.5914148541638597 0.35608285790840133 L -0.3999999999999999 0.35608285790840133 L -0.3999999999999999 0.1646927247640639 L -0.5914148541638597 0.1646927247640639 Z" fill="#c84449" transform="matrix(1,0,0,1,0,0)" fill-rule="evenodd"></path></g></g></g><defs><clipPath id="SvgjsClipPath1051"><path d=" M -1.5484149619245926 -0.026722129399796235 h 1.1484149619245927 v 1.1484149619245927 h -1.1484149619245927 Z"></path></clipPath><clipPath id="SvgjsClipPath10482733ddaa-c65d-4247-b8d6-24b6d72dd8d5"><path d=" M -1.5484149619245926 -0.026722129399796235 L -0.3999999999999999 -0.026722129399796235 L -0.3999999999999999 1.1216928325247966 L -1.5484149619245926 1.1216928325247966 Z"></path></clipPath></defs></svg>